# Blender v2.77 (sub 0) OBJ File: 'benchv2.2.blend'
# www.blender.org
mtllib benchv2.2.mtl
o КриваяБезье.001_Mesh.001
v -0.920811 0.849876 -0.142470
v -0.920811 0.837953 -0.153089
v -0.920811 0.927518 -0.210468
v -0.920811 0.915595 -0.221087
v 0.914756 0.857113 -0.138395
v 0.914756 0.839540 -0.154045
v 0.914756 0.971543 -0.238612
v 0.914756 0.953970 -0.254262
v -0.923110 0.708670 -0.102837
v -0.923110 0.704278 -0.120528
v -0.921119 0.838015 -0.127885
v -0.921119 0.833623 -0.145577
v 0.913727 0.686092 -0.099118
v 0.913727 0.682009 -0.115563
v 0.915578 0.806319 -0.122400
v 0.915578 0.802236 -0.138845
v -0.922218 0.494452 -0.088633
v -0.922218 0.492971 -0.110634
v -0.922218 0.655322 -0.097075
v -0.922218 0.653842 -0.119077
v 0.914756 0.494452 -0.088633
v 0.914756 0.492971 -0.110634
v 0.914756 0.655322 -0.097075
v 0.914756 0.653842 -0.119077
v -0.922218 0.422562 0.032923
v -0.922218 0.403866 0.025516
v -0.922218 0.476722 -0.073700
v -0.922218 0.458026 -0.081107
v 0.914756 0.418698 0.045347
v 0.914756 0.395928 0.036326
v 0.914756 0.484659 -0.084510
v 0.914756 0.461890 -0.093531
v -0.922218 0.409593 0.365804
v -0.922218 0.384637 0.365804
v -0.922218 0.409593 0.223479
v -0.922218 0.384637 0.223479
v 0.914756 0.409593 0.355649
v 0.914756 0.384637 0.355649
v 0.914756 0.409593 0.233635
v 0.914756 0.384637 0.233635
v -0.922218 0.409593 0.190268
v -0.922218 0.384637 0.190268
v -0.922218 0.409593 0.073926
v -0.922218 0.384637 0.073926
v 0.914756 0.409593 0.203260
v 0.914756 0.384637 0.203260
v 0.914756 0.409593 0.060934
v 0.914756 0.384637 0.060934
v -0.795399 0.452628 -0.119233
v -0.795399 0.488066 -0.132043
v -0.837781 0.488066 -0.132043
v -0.837781 0.452628 -0.119233
v -0.795399 -0.009403 -0.271717
v -0.795399 -0.007423 -0.309106
v -0.837781 -0.007423 -0.309106
v -0.837781 -0.009403 -0.271717
v -0.795399 -0.008222 0.442095
v -0.795399 -0.008222 0.479525
v -0.837781 -0.008222 0.479525
v -0.837781 -0.008222 0.442095
v -0.795399 0.905141 -0.259124
v -0.795399 0.940631 -0.238665
v -0.837781 0.940631 -0.238665
v -0.837781 0.905141 -0.259124
v -0.795399 0.905141 -0.259124
v -0.795399 0.940631 -0.238665
v -0.837781 0.940631 -0.238665
v -0.837781 0.905141 -0.259124
v -0.795399 0.814471 -0.176773
v -0.795399 0.834823 -0.143941
v -0.837781 0.834823 -0.143941
v -0.837781 0.814471 -0.176773
v -0.795399 0.690212 -0.154576
v -0.795399 0.695764 -0.117469
v -0.837781 0.695764 -0.117469
v -0.837781 0.690212 -0.154576
v -0.795399 0.455489 -0.140343
v -0.795399 0.478929 -0.109159
v -0.837781 0.478929 -0.109159
v -0.837781 0.455489 -0.140343
v -0.795399 0.350241 0.044810
v -0.795399 0.391497 0.053379
v -0.837781 0.391497 0.053379
v -0.837781 0.350241 0.044810
v -0.795399 0.350549 0.339262
v -0.795399 0.386566 0.358989
v -0.837781 0.386566 0.358989
v -0.837781 0.350549 0.339262
v -0.795399 -0.008222 0.442095
v -0.795399 -0.008222 0.479525
v -0.837781 -0.008222 0.479525
v -0.837781 -0.008222 0.442095
v -0.795399 -0.009403 -0.271717
v -0.795399 -0.007423 -0.309106
v -0.837781 -0.007423 -0.309106
v -0.837781 -0.009403 -0.271717
v -0.795399 0.256384 -0.231397
v -0.795399 0.266924 -0.267650
v -0.837781 0.266924 -0.267650
v -0.837781 0.256384 -0.231397
v -0.795399 0.442444 -0.165949
v -0.795399 0.486041 -0.182276
v -0.837781 0.486041 -0.182276
v -0.837781 0.442444 -0.165949
v -0.795399 0.452628 -0.119233
v -0.795399 0.488066 -0.132043
v -0.837781 0.488066 -0.132043
v -0.837781 0.452628 -0.119233
v 0.840724 0.452628 -0.119233
v 0.840724 0.488066 -0.132043
v 0.798342 0.488066 -0.132043
v 0.798342 0.452628 -0.119233
v 0.840724 -0.009403 -0.271717
v 0.840724 -0.007423 -0.309106
v 0.798342 -0.007423 -0.309106
v 0.798342 -0.009403 -0.271717
v 0.840724 -0.008222 0.489731
v 0.840724 -0.008222 0.527160
v 0.798342 -0.008222 0.527160
v 0.798342 -0.008222 0.489731
v 0.840724 0.905141 -0.259124
v 0.840724 0.940631 -0.238665
v 0.798342 0.940631 -0.238665
v 0.798342 0.905141 -0.259124
v 0.840724 0.905141 -0.259124
v 0.840724 0.940631 -0.238665
v 0.798342 0.940631 -0.238665
v 0.798342 0.905141 -0.259124
v 0.840724 0.814471 -0.176773
v 0.840724 0.834823 -0.143941
v 0.798342 0.834823 -0.143941
v 0.798342 0.814471 -0.176773
v 0.840724 0.690212 -0.154576
v 0.840724 0.695764 -0.117469
v 0.798342 0.695764 -0.117469
v 0.798342 0.690212 -0.154576
v 0.840724 0.455489 -0.140343
v 0.840724 0.478929 -0.109159
v 0.798342 0.478929 -0.109159
v 0.798342 0.455489 -0.140343
v 0.840724 0.350241 0.044810
v 0.840724 0.391497 0.053379
v 0.798342 0.391497 0.053379
v 0.798342 0.350241 0.044810
v 0.840724 0.350548 0.339262
v 0.840724 0.386566 0.358989
v 0.798342 0.386566 0.358989
v 0.798342 0.350548 0.339262
v 0.840724 -0.008222 0.489731
v 0.840724 -0.008222 0.527160
v 0.798342 -0.008222 0.527160
v 0.798342 -0.008222 0.489731
v 0.840724 -0.009403 -0.271717
v 0.840724 -0.007423 -0.309106
v 0.798342 -0.007423 -0.309106
v 0.798342 -0.009403 -0.271717
v 0.839941 0.264481 -0.240988
v 0.839941 0.275021 -0.277241
v 0.797560 0.275021 -0.277241
v 0.797560 0.264481 -0.240988
v 0.840724 0.442444 -0.165949
v 0.840724 0.486041 -0.182276
v 0.798342 0.486041 -0.182276
v 0.798342 0.442444 -0.165949
v 0.840724 0.452628 -0.119233
v 0.840724 0.488066 -0.132043
v 0.798342 0.488066 -0.132043
v 0.798342 0.452628 -0.119233
vn 0.0000 0.3400 0.9404
vn -0.0000 -0.9986 -0.0529
vn 0.0000 -1.0000 0.0000
vn -0.0000 0.4994 -0.8664
vn 0.0000 -0.6723 -0.7403
vn 1.0000 -0.0000 0.0000
vn 0.0000 0.6670 0.7451
vn -1.0000 -0.0000 0.0000
vn 0.0000 -0.1758 -0.9844
vn -0.0000 0.1870 0.9824
vn -0.0000 -0.0605 -0.9982
vn 0.0000 0.0383 0.9993
vn -0.0000 -0.8694 -0.4942
vn 0.0000 0.8807 0.4737
vn 0.0000 -1.0000 0.0010
vn -0.0000 0.9999 0.0161
vn 0.0000 -0.2755 -0.9613
vn -0.0000 0.2920 0.9564
vn -0.0000 -0.1500 0.9887
vn 0.0000 0.1494 -0.9888
vn -0.0000 -0.3318 0.9433
vn 0.0000 0.3630 -0.9318
vn -0.0000 -0.9771 0.2130
vn -0.0000 0.9992 -0.0403
vn -0.0000 -0.3868 -0.9222
vn -0.0000 0.3919 0.9200
vn -0.0000 -0.1115 0.9938
vn 1.0000 0.0028 0.0005
vn 0.0000 0.1121 -0.9937
vn -1.0000 -0.0028 -0.0005
vn -0.0000 -0.3885 0.9214
vn 1.0000 -0.0028 -0.0029
vn 0.0000 0.4104 -0.9119
vn -1.0000 0.0028 0.0029
vn -0.0274 0.6648 -0.7465
vn 0.0010 -0.6651 0.7468
vn -0.0043 0.6588 0.7523
vn 0.0002 -0.6588 -0.7523
vn -0.9999 0.0147 -0.0036
vn 0.0175 0.9704 -0.2409
vn 0.9999 -0.0147 0.0036
vn -0.0124 -0.9705 0.2409
vn 0.0003 0.1901 0.9818
vn 0.0003 -0.1901 -0.9818
vn -0.0000 0.9977 -0.0671
vn 0.0000 -0.9977 0.0671
vn 0.0000 0.0524 0.9986
vn 0.0000 -0.0524 -0.9986
vn -0.0071 0.3683 -0.9297
vn -0.0071 -0.3683 0.9297
vn -0.0012 0.8916 0.4529
vn -0.0012 -0.8916 -0.4529
vn 0.0055 -0.0000 -1.0000
vn 0.0055 -0.0000 1.0000
vn 0.0000 1.0000 0.0000
vn -0.0071 -0.0000 -1.0000
vn -0.0071 0.0000 1.0000
usemtl Black
s off
f 49//1 51//1 52//1
f 49//1 50//1 51//1
f 55//2 53//2 56//2
f 54//2 53//2 55//2
f 57//3 59//3 60//3
f 57//3 58//3 59//3
f 63//4 61//4 64//4
f 62//4 61//4 63//4
f 65//5 69//5 72//5 68//5
f 66//6 70//6 69//6 65//6
f 67//7 71//7 70//7 66//7
f 68//8 72//8 71//8 67//8
f 69//9 73//9 76//9 72//9
f 70//6 74//6 73//6 69//6
f 71//10 75//10 74//10 70//10
f 72//8 76//8 75//8 71//8
f 73//11 77//11 80//11 76//11
f 74//6 78//6 77//6 73//6
f 75//12 79//12 78//12 74//12
f 76//8 80//8 79//8 75//8
f 77//13 81//13 84//13 80//13
f 78//6 82//6 81//6 77//6
f 79//14 83//14 82//14 78//14
f 80//8 84//8 83//8 79//8
f 81//15 85//15 88//15 84//15
f 82//6 86//6 85//6 81//6
f 83//16 87//16 86//16 82//16
f 84//8 88//8 87//8 83//8
f 85//17 89//17 92//17 88//17
f 86//6 90//6 89//6 85//6
f 87//18 91//18 90//18 86//18
f 88//8 92//8 91//8 87//8
f 93//19 97//19 100//19 96//19
f 94//6 98//6 97//6 93//6
f 95//20 99//20 98//20 94//20
f 96//8 100//8 99//8 95//8
f 97//21 101//21 104//21 100//21
f 98//6 102//6 101//6 97//6
f 99//22 103//22 102//22 98//22
f 100//8 104//8 103//8 99//8
f 101//23 105//23 108//23 104//23
f 102//6 106//6 105//6 101//6
f 103//24 107//24 106//24 102//24
f 104//8 108//8 107//8 103//8
f 109//1 111//1 112//1
f 109//1 110//1 111//1
f 115//2 113//2 116//2
f 114//2 113//2 115//2
f 117//3 119//3 120//3
f 117//3 118//3 119//3
f 123//4 121//4 124//4
f 122//4 121//4 123//4
f 125//5 129//5 132//5 128//5
f 126//6 130//6 129//6 125//6
f 127//7 131//7 130//7 126//7
f 128//8 132//8 131//8 127//8
f 129//9 133//9 136//9 132//9
f 130//6 134//6 133//6 129//6
f 131//10 135//10 134//10 130//10
f 132//8 136//8 135//8 131//8
f 133//11 137//11 140//11 136//11
f 134//6 138//6 137//6 133//6
f 135//12 139//12 138//12 134//12
f 136//8 140//8 139//8 135//8
f 137//13 141//13 144//13 140//13
f 138//6 142//6 141//6 137//6
f 139//14 143//14 142//14 138//14
f 140//8 144//8 143//8 139//8
f 141//15 145//15 148//15 144//15
f 142//6 146//6 145//6 141//6
f 143//16 147//16 146//16 142//16
f 144//8 148//8 147//8 143//8
f 145//25 149//25 152//25 148//25
f 146//6 150//6 149//6 145//6
f 147//26 151//26 150//26 146//26
f 148//8 152//8 151//8 147//8
f 153//27 157//27 160//27 156//27
f 154//28 158//28 157//28 153//28
f 155//29 159//29 158//29 154//29
f 156//30 160//30 159//30 155//30
f 157//31 161//31 164//31 160//31
f 158//32 162//32 161//32 157//32
f 159//33 163//33 162//33 158//33
f 160//34 164//34 163//34 159//34
f 161//23 165//23 168//23 164//23
f 162//6 166//6 165//6 161//6
f 163//24 167//24 166//24 162//24
f 164//8 168//8 167//8 163//8
usemtl wood.001
f 2//8 1//8 3//8 4//8
f 4//35 3//35 7//35 8//35
f 8//6 7//6 5//6 6//6
f 6//36 5//36 1//36 2//36
f 1//37 5//37 7//37 3//37
f 6//38 2//38 4//38 8//38
f 10//39 9//39 11//39 12//39
f 12//40 11//40 15//40 16//40
f 16//41 15//41 13//41 14//41
f 14//42 13//42 9//42 10//42
f 9//43 13//43 15//43 11//43
f 14//44 10//44 12//44 16//44
f 18//8 17//8 19//8 20//8
f 20//45 19//45 23//45 24//45
f 24//6 23//6 21//6 22//6
f 22//46 21//46 17//46 18//46
f 17//47 21//47 23//47 19//47
f 22//48 18//48 20//48 24//48
f 26//8 25//8 27//8 28//8
f 28//49 27//49 31//49 32//49
f 32//6 31//6 29//6 30//6
f 30//50 29//50 25//50 26//50
f 25//51 29//51 31//51 27//51
f 30//52 26//52 28//52 32//52
f 34//8 33//8 35//8 36//8
f 36//53 35//53 39//53 40//53
f 40//6 39//6 37//6 38//6
f 38//54 37//54 33//54 34//54
f 33//55 37//55 39//55 35//55
f 38//3 34//3 36//3 40//3
f 42//8 41//8 43//8 44//8
f 44//56 43//56 47//56 48//56
f 48//6 47//6 45//6 46//6
f 46//57 45//57 41//57 42//57
f 41//55 45//55 47//55 43//55
f 46//3 42//3 44//3 48//3
