# Blender v2.82 (sub 7) OBJ File: 'untitled.blend'
# www.blender.org
mtllib magnet1.mtl
o uploads_files_940392_magnet
v -0.722500 7.030201 -2.365954
v 0.722500 7.030201 -2.365954
v 0.770800 5.553401 -2.858454
v -0.770800 5.553401 -2.858454
v 0.837100 4.206101 -3.273154
v -0.837100 4.206101 -3.273154
v 0.870800 3.057901 -3.353955
v -0.870800 3.057901 -3.353955
v -0.871600 2.042101 -3.103755
v 0.871600 2.042101 -3.103755
v 0.872500 1.026401 -2.387455
v -0.872500 1.026401 -2.387455
v -0.872500 0.270701 -1.158455
v 0.872500 0.270701 -1.158455
v 0.872500 0.051400 0.070445
v -0.872500 0.051400 0.070445
v -0.872500 0.269300 1.356445
v 0.872500 0.269300 1.356445
v 0.872500 1.023500 2.642345
v -0.872500 1.023500 2.642345
v -0.871600 2.039200 3.355945
v 0.871600 2.039200 3.355945
v 0.870800 3.054900 3.603445
v -0.870800 3.054900 3.603445
v 0.837100 4.203200 3.517046
v -0.837100 4.203200 3.517046
v 0.770900 5.550600 3.097046
v -0.770900 5.550600 3.097046
v 0.722500 7.027500 2.599446
v -0.722500 7.027500 2.599446
v 0.722500 7.027501 1.359146
v -0.722500 7.027501 1.359146
v 0.769000 5.552300 1.604846
v -0.769000 5.552300 1.604846
v 0.834300 4.207900 1.813046
v -0.834300 4.207900 1.813046
v 0.870300 3.056000 1.860645
v -0.870300 3.056000 1.860645
v 0.871400 2.626100 1.687845
v -0.871400 2.626100 1.687845
v -0.872500 2.196200 1.382045
v 0.872500 2.196200 1.382045
v 0.872500 1.866800 0.729445
v -0.872500 1.866800 0.729445
v -0.872500 1.816200 0.076845
v 0.872500 1.816200 0.076845
v 0.872500 1.871200 -0.525155
v -0.872500 1.871200 -0.525155
v -0.872500 2.205101 -1.127255
v 0.872500 2.205101 -1.127255
v 0.871400 2.635000 -1.435655
v -0.871400 2.635000 -1.435655
v -0.870300 3.064900 -1.611155
v 0.870300 3.064900 -1.611155
v 0.834300 4.216601 -1.569255
v -0.834300 4.216601 -1.569255
v 0.769000 5.560600 -1.366654
v -0.769000 5.560600 -1.366654
v 0.722500 7.035501 -1.125554
v -0.722500 7.035501 -1.125554
vt 0.298500 0.859100
vt 0.439000 0.872100
vt 0.499800 0.946600
vt 0.240600 0.978600
vt 0.927100 0.074700
vt 0.100100 0.074700
vt 0.064600 0.038800
vt 0.962700 0.038800
vt 0.046500 0.033200
vt 0.980800 0.033200
vt 0.981200 0.057700
vt 0.046000 0.057700
vt 0.045500 0.124900
vt 0.981600 0.124900
vt 0.981500 0.238700
vt 0.045400 0.238700
vt 0.045300 0.351700
vt 0.981400 0.351700
vt 0.981300 0.469200
vt 0.045200 0.469200
vt 0.045100 0.585900
vt 0.981200 0.585900
vt 0.980700 0.649700
vt 0.045500 0.649700
vt 0.045900 0.670800
vt 0.980200 0.670800
vt 0.064000 0.661100
vt 0.962100 0.661200
vt 0.099600 0.620600
vt 0.926600 0.620600
vt 0.771700 0.946600
vt 0.512700 0.977900
vt 0.571100 0.859100
vt 0.710700 0.873100
vt 0.594000 0.754400
vt 0.670500 0.800600
vt 0.499900 0.703800
vt 0.770600 0.685800
vt 0.925800 0.483800
vt 0.100700 0.483800
vt 0.065600 0.505000
vt 0.960800 0.505000
vt 0.046400 0.511100
vt 0.980100 0.511100
vt 0.045800 0.495900
vt 0.980700 0.495900
vt 0.981300 0.468600
vt 0.045200 0.468600
vt 0.045300 0.409200
vt 0.981300 0.409300
vt 0.981400 0.349500
vt 0.045300 0.349500
vt 0.045400 0.294300
vt 0.981400 0.294300
vt 0.981500 0.238600
vt 0.045400 0.238600
vt 0.046000 0.209600
vt 0.980900 0.209700
vt 0.980300 0.192900
vt 0.046600 0.192900
vt 0.065900 0.194900
vt 0.961100 0.195000
vt 0.100900 0.211400
vt 0.926000 0.211500
vt 0.228300 0.703900
vt 0.499100 0.685800
vt 0.397800 0.801600
vt 0.323700 0.754100
vn 0.0000 0.3164 -0.9486
vn -0.0000 0.3055 -0.9522
vn 0.0000 0.1886 -0.9821
vn -0.0000 -0.0811 -0.9967
vn -0.0000 -0.4298 -0.9029
vn 0.0000 -0.7394 -0.6732
vn 0.0000 -0.9295 -0.3687
vn 0.0000 -1.0000 -0.0006
vn -0.0000 -0.9354 0.3536
vn -0.0000 -0.7489 0.6627
vn -0.0000 -0.4278 0.9039
vn -0.0000 -0.0773 0.9970
vn -0.0000 0.1928 0.9812
vn 0.0000 0.3082 0.9513
vn 0.0000 0.3193 0.9477
vn 0.0000 1.0000 0.0000
vn 0.0000 -0.1643 -0.9864
vn 0.0000 -0.1585 -0.9874
vn -0.0000 -0.0988 -0.9951
vn 0.0002 0.0827 -0.9966
vn 0.0000 0.0827 -0.9966
vn 0.0000 0.4865 -0.8737
vn 0.0001 0.7839 -0.6209
vn -0.0000 0.7839 -0.6209
vn 0.0000 0.9601 -0.2795
vn 0.0000 1.0000 0.0035
vn 0.0000 0.9516 0.3073
vn -0.0000 0.7662 0.6426
vn -0.0001 0.7662 0.6426
vn -0.0000 0.4907 0.8713
vn -0.0002 0.0880 0.9961
vn -0.0000 0.0880 0.9961
vn -0.0000 -0.0944 0.9955
vn 0.0000 -0.1550 0.9879
vn 0.0000 -0.1613 0.9869
vn 0.0000 1.0000 -0.0043
vn 0.9995 0.0320 0.0005
vn 0.9992 0.0398 0.0008
vn 0.9991 0.0420 0.0009
vn 0.9992 0.0400 0.0010
vn 0.9993 0.0382 0.0010
vn 0.9998 0.0174 0.0004
vn 0.9998 0.0196 0.0005
vn 1.0000 0.0012 -0.0003
vn 1.0000 0.0011 -0.0003
vn 1.0000 0.0005 -0.0003
vn 1.0000 -0.0000 0.0000
vn 1.0000 0.0005 0.0003
vn 1.0000 0.0012 0.0003
vn 1.0000 0.0011 0.0003
vn 0.9998 0.0175 -0.0005
vn 0.9998 0.0196 -0.0006
vn 0.9992 0.0399 -0.0012
vn 0.9993 0.0385 -0.0011
vn 0.9992 0.0394 -0.0010
vn 0.9991 0.0419 -0.0011
vn 0.9995 0.0320 -0.0007
vn -0.9995 0.0320 0.0005
vn -0.9991 0.0420 0.0009
vn -0.9992 0.0398 0.0008
vn -0.9993 0.0382 0.0010
vn -0.9992 0.0400 0.0010
vn -0.9998 0.0196 0.0005
vn -0.9998 0.0174 0.0004
vn -1.0000 0.0011 -0.0003
vn -1.0000 0.0012 -0.0003
vn -1.0000 0.0005 -0.0003
vn -1.0000 -0.0000 0.0000
vn -1.0000 0.0005 0.0003
vn -1.0000 0.0011 0.0003
vn -1.0000 0.0012 0.0003
vn -0.9998 0.0196 -0.0006
vn -0.9998 0.0175 -0.0005
vn -0.9993 0.0385 -0.0011
vn -0.9992 0.0399 -0.0012
vn -0.9991 0.0419 -0.0011
vn -0.9992 0.0394 -0.0010
vn -0.9995 0.0320 -0.0007
usemtl 01___Default
s 1
f 1/1/1 2/2/1 3/3/2 4/4/2
f 4/5/2 3/6/2 5/7/3 6/8/3
f 6/8/3 5/7/3 7/9/4 8/10/4
f 9/11/5 10/12/5 11/13/6 12/14/6
f 13/15/7 14/16/7 15/17/8 16/18/8
f 17/19/9 18/20/9 19/21/10 20/22/10
f 21/23/11 22/24/11 23/25/12 24/26/12
f 24/26/12 23/25/12 25/27/13 26/28/13
f 26/28/13 25/27/13 27/29/14 28/30/14
f 28/31/14 27/32/14 29/33/15 30/34/15
f 30/34/16 29/33/16 31/35/16 32/36/16
f 32/36/17 31/35/17 33/37/18 34/38/18
f 34/39/18 33/40/18 35/41/19 36/42/19
f 36/42/19 35/41/19 37/43/20 38/44/21
f 38/44/21 37/43/20 39/45/22 40/46/22
f 41/47/23 42/48/24 43/49/25 44/50/25
f 45/51/26 46/52/26 47/53/27 48/54/27
f 49/55/28 50/56/29 51/57/30 52/58/30
f 53/59/31 54/60/32 55/61/33 56/62/33
f 56/62/33 55/61/33 57/63/34 58/64/34
f 58/65/34 57/66/34 59/67/35 60/68/35
f 60/68/36 59/67/36 2/2/36 1/1/36
f 2/2/37 59/67/37 57/66/38 3/3/39
f 3/6/39 57/63/38 55/61/40 5/7/41
f 5/7/41 55/61/40 54/60/42 7/9/43
f 10/12/44 51/57/45 50/56/46 11/13/46
f 14/16/47 47/53/47 46/52/47 15/17/47
f 18/20/47 43/49/47 42/48/48 19/21/48
f 22/24/49 39/45/50 37/43/51 23/25/52
f 23/25/52 37/43/51 35/41/53 25/27/54
f 25/27/54 35/41/53 33/40/55 27/29/56
f 27/32/56 33/37/55 31/35/57 29/33/57
f 60/68/58 1/1/58 4/4/59 58/65/60
f 58/64/60 4/5/59 6/8/61 56/62/62
f 56/62/62 6/8/61 8/10/63 53/59/64
f 52/58/65 9/11/66 12/14/67 49/55/67
f 48/54/68 13/15/68 16/18/68 45/51/68
f 44/50/68 17/19/68 20/22/69 41/47/69
f 40/46/70 21/23/71 24/26/72 38/44/73
f 38/44/73 24/26/72 26/28/74 36/42/75
f 36/42/75 26/28/74 28/30/76 34/39/77
f 34/38/77 28/31/76 30/34/78 32/36/78
f 16/18/8 15/17/8 18/20/9 17/19/9
f 15/17/47 46/52/47 43/49/47 18/20/47
f 44/50/25 43/49/25 46/52/26 45/51/26
f 45/51/68 16/18/68 17/19/68 44/50/68
f 12/14/6 11/13/6 14/16/7 13/15/7
f 11/13/46 50/56/46 47/53/47 14/16/47
f 48/54/27 47/53/27 50/56/29 49/55/28
f 49/55/67 12/14/67 13/15/68 48/54/68
f 8/10/4 7/9/4 10/12/5 9/11/5
f 7/9/43 54/60/42 51/57/45 10/12/44
f 52/58/30 51/57/30 54/60/32 53/59/31
f 53/59/64 8/10/63 9/11/66 52/58/65
f 20/22/10 19/21/10 22/24/11 21/23/11
f 19/21/48 42/48/48 39/45/50 22/24/49
f 40/46/22 39/45/22 42/48/24 41/47/23
f 41/47/69 20/22/69 21/23/71 40/46/70
